<?xml version="1.0" standalone="no"?>
<!DOCTYPE svg PUBLIC "-//W3C//DTD SVG 20010904//EN"
 "http://www.w3.org/TR/2001/REC-SVG-20010904/DTD/svg10.dtd">
<svg version="1.0" xmlns="http://www.w3.org/2000/svg"
 width="214.000000pt" height="251.000000pt" viewBox="0 0 214.000000 251.000000"
 preserveAspectRatio="xMidYMid meet">

<g transform="translate(0.000000,251.000000) scale(0.100000,-0.100000)"
fill="#000000" stroke="none">
<path d="M1011 2436 c-33 -18 -50 -53 -51 -102 0 -33 6 -49 30 -74 l29 -32
-75 -181 c-42 -100 -82 -197 -90 -216 l-14 -33 -102 123 c-56 68 -105 129
-110 135 -5 7 -2 26 8 47 16 33 16 37 -2 73 -14 28 -29 42 -54 50 -67 22 -120
-17 -120 -89 0 -41 35 -87 66 -87 15 0 16 -9 11 -72 -4 -40 -10 -135 -13 -210
l-7 -136 -58 48 c-32 26 -87 69 -122 94 -64 46 -65 47 -60 86 7 51 -14 84 -63
100 -32 11 -42 10 -70 -5 -87 -47 -56 -175 42 -175 19 0 34 -1 34 -2 1 -15 90
-402 94 -405 3 -3 26 2 53 11 136 44 402 84 613 92 259 10 573 -24 795 -86 38
-11 72 -16 75 -12 4 4 23 85 44 181 48 222 48 221 87 221 20 0 40 9 60 29 76
76 -12 197 -107 146 -40 -21 -58 -61 -49 -107 5 -26 3 -37 -8 -41 -8 -3 -63
-42 -121 -86 -58 -45 -108 -81 -110 -81 -1 0 -6 80 -10 177 -4 98 -9 188 -12
200 -5 18 -1 25 19 32 34 13 67 58 67 92 0 44 -48 92 -90 91 -44 -1 -75 -18
-89 -49 -14 -30 -14 -80 -1 -88 22 -14 6 -42 -97 -168 -59 -73 -108 -134 -110
-137 -7 -8 -19 18 -108 231 l-88 209 33 36 c29 33 32 42 27 83 -7 62 -49 101
-110 101 -23 -1 -53 -7 -66 -14z"/>
<path d="M890 1424 c-93 -6 -280 -34 -375 -55 -76 -17 -184 -47 -192 -53 -5
-4 48 -211 56 -219 4 -4 63 6 131 23 207 50 330 64 575 64 242 0 361 -14 570
-65 66 -16 123 -29 126 -29 4 0 19 50 34 111 22 86 25 113 15 119 -22 14 -229
60 -358 80 -124 20 -453 33 -582 24z"/>
<path d="M1472 1015 c-58 -25 -89 -53 -112 -102 -29 -61 -24 -96 35 -241 42
-101 45 -116 35 -146 -26 -80 -138 -129 -160 -70 -11 28 -6 61 17 117 18 42
14 53 -15 38 -31 -17 -62 -73 -56 -102 5 -19 3 -21 -5 -9 -8 12 -11 8 -11 -17
0 -83 99 -118 203 -70 47 21 58 32 81 80 31 62 29 78 -14 172 -62 134 -68 197
-22 254 16 20 50 45 76 55 43 18 48 19 62 4 20 -20 8 -64 -31 -110 -14 -16
-25 -34 -25 -39 0 -28 54 12 94 70 38 54 30 85 -27 111 -50 23 -80 24 -125 5z"/>
<path d="M730 993 c-59 -22 -115 -104 -108 -158 5 -44 21 -40 42 12 24 57 72
113 97 113 10 0 19 -4 19 -9 0 -18 -50 -152 -105 -281 -63 -147 -80 -225 -50
-236 22 -9 38 10 59 68 19 53 122 219 191 309 45 57 90 97 100 87 3 -3 -26
-67 -64 -142 -69 -136 -89 -202 -77 -251 11 -42 32 -29 77 47 75 127 180 258
206 258 19 0 17 -9 -28 -104 -22 -48 -38 -94 -35 -102 3 -8 2 -13 -3 -10 -17
11 -50 -106 -51 -177 0 -99 81 -150 147 -93 34 30 27 40 -16 25 -44 -16 -81 1
-81 36 0 29 54 180 107 299 36 79 39 120 12 153 -35 41 -123 -24 -209 -156
-28 -42 -50 -71 -50 -66 0 6 25 61 55 124 30 62 55 126 55 141 0 34 -31 64
-59 55 -22 -7 -114 -110 -159 -177 -13 -21 -27 -36 -29 -34 -3 2 7 37 22 78
31 85 34 138 11 173 -16 24 -42 30 -76 18z"/>
<path d="M432 213 c3 -17 45 -18 638 -25 349 -4 641 -5 648 -3 6 3 12 11 12
18 0 17 -317 27 -898 27 -379 0 -403 -1 -400 -17z"/>
<path d="M750 166 c-9 -12 -9 -23 -2 -45 7 -21 7 -32 -1 -41 -9 -10 -9 -11 3
-8 15 5 18 30 6 58 -3 8 -1 22 4 30 9 13 11 13 21 0 9 -12 10 -12 7 -1 -6 21
-23 24 -38 7z"/>
<path d="M919 172 c-45 -3 -45 -4 -57 -49 -21 -76 -4 -61 22 20 3 11 16 17 36
17 35 0 34 3 15 -44 -10 -23 -20 -34 -27 -30 -7 4 -8 3 -4 -4 13 -21 23 -13
45 36 l21 47 -6 -50 c-7 -61 6 -53 16 9 8 51 6 52 -61 48z"/>
<path d="M1062 164 c-13 -9 -19 -20 -15 -31 4 -10 2 -14 -4 -10 -7 5 -9 0 -6
-13 7 -26 19 -34 29 -19 5 8 3 9 -6 4 -17 -10 -3 33 18 58 20 23 11 30 -16 11z"/>
<path d="M1334 173 c4 -7 -2 -34 -13 -59 -15 -32 -17 -43 -6 -34 23 19 40 80
25 93 -10 9 -11 9 -6 0z"/>
<path d="M801 144 c-23 -29 -28 -69 -9 -80 18 -11 46 32 46 71 0 42 -9 44 -37
9z m27 -11 c0 -32 -14 -63 -28 -63 -15 0 -12 27 5 60 19 37 22 37 23 3z"/>
<path d="M1124 133 c-8 -18 -14 -37 -14 -43 0 -5 -4 -10 -10 -10 -13 0 -13 12
0 46 9 24 9 25 -5 14 -8 -7 -15 -25 -15 -41 0 -22 5 -29 20 -29 11 0 20 6 20
13 0 6 8 2 18 -11 15 -20 22 -22 45 -13 15 6 27 13 27 16 0 4 -4 3 -10 0 -13
-8 -13 -1 1 46 7 21 19 40 28 42 10 3 8 5 -6 6 -17 1 -23 -5 -23 -18 0 -11 -4
-22 -9 -25 -4 -3 -11 -20 -15 -37 -5 -25 -9 -29 -20 -20 -23 19 -25 50 -5 74
10 12 18 18 19 13 0 -5 -7 -18 -17 -28 -20 -22 -11 -24 11 -2 23 22 20 43 -5
41 -14 -1 -27 -13 -35 -34z"/>
<path d="M1282 137 c-7 -18 -12 -42 -12 -53 1 -16 3 -16 14 5 8 14 11 32 8 40
-3 8 -1 12 4 8 5 -3 10 3 10 14 0 29 -11 23 -24 -14z"/>
<path d="M1370 151 c0 -11 -4 -22 -9 -25 -13 -8 -20 -56 -9 -62 5 -4 15 -1 21
6 9 10 9 11 0 6 -16 -9 -16 -3 -1 45 17 58 42 52 35 -8 -4 -39 -3 -45 7 -31 7
9 10 33 8 52 -4 30 -8 36 -28 36 -17 0 -24 -6 -24 -19z"/>
<path d="M1454 148 l-19 -23 23 19 c12 11 22 21 22 23 0 8 -8 2 -26 -19z"/>
<path d="M1004 136 c-3 -8 -4 -27 -2 -43 l3 -28 14 24 c8 14 9 21 2 16 -8 -5
-10 1 -5 19 6 27 -3 36 -12 12z"/>
<path d="M721 84 c0 -11 3 -14 6 -6 3 7 2 16 -1 19 -3 4 -6 -2 -5 -13z"/>
<path d="M430 20 c0 -20 7 -20 650 -20 536 0 650 2 650 13 0 11 -90 15 -482
20 -265 4 -557 7 -650 7 -161 0 -168 -1 -168 -20z"/>
</g>
</svg>
